<svg width="30" height="29" viewBox="0 0 30 29" fill="none" xmlns="http://www.w3.org/2000/svg"><path d="M15.254 28.876h-.064C7.249 28.876.788 22.413.788 14.47v-.064C.788 6.463 7.248 0 15.19 0h.064c7.94 0 14.402 6.463 14.402 14.406v.064c0 7.943-6.461 14.406-14.402 14.406zM15.19.977c-7.403 0-13.425 6.024-13.425 13.43v.063c0 7.405 6.022 13.428 13.425 13.428h.064c7.402 0 13.424-6.023 13.424-13.428v-.064c0-7.405-6.022-13.429-13.425-13.429h-.063z" fill="#fff"/><path d="M17.164 11.2v3.04h3.758l-.595 4.093h-3.163v9.43a14.125 14.125 0 0 1-4.176-.043v-9.387H9.522v-4.094h3.466v-3.718a4.177 4.177 0 0 1 4.177-4.177v.002l.02-.002h3.738v3.54H18.48c-.726 0-1.315.59-1.315 1.316h-.001z" fill="#fff"/></svg>