<svg width="30" height="29" viewBox="0 0 30 29" fill="none" xmlns="http://www.w3.org/2000/svg"><path d="M15.121 28.876h-.063C7.117 28.876.656 22.413.656 14.47v-.064C.656 6.463 7.116 0 15.058 0h.063c7.941 0 14.402 6.463 14.402 14.406v.064c0 7.943-6.46 14.406-14.402 14.406zM15.058.977c-7.403 0-13.425 6.024-13.425 13.43v.063c0 7.405 6.022 13.428 13.425 13.428h.063c7.403 0 13.425-6.023 13.425-13.428v-.064c0-7.405-6.022-13.429-13.425-13.429h-.063z" fill="#fff"/><path d="M19.405 6.165h-8.63a4.33 4.33 0 0 0-4.324 4.325v7.898a4.33 4.33 0 0 0 4.324 4.325h8.63a4.33 4.33 0 0 0 4.324-4.325V10.49a4.33 4.33 0 0 0-4.324-4.325zM7.976 10.49c0-1.543 1.256-2.8 2.799-2.8h8.63a2.802 2.802 0 0 1 2.798 2.8v7.898a2.802 2.802 0 0 1-2.798 2.799h-8.63a2.802 2.802 0 0 1-2.799-2.8V10.49z" fill="#fff"/><path d="M15.09 18.461a4.027 4.027 0 0 0 4.022-4.023 4.026 4.026 0 0 0-4.022-4.023 4.026 4.026 0 0 0-4.022 4.023 4.026 4.026 0 0 0 4.022 4.023zm0-6.52a2.5 2.5 0 0 1 2.496 2.498 2.5 2.5 0 0 1-2.496 2.497 2.5 2.5 0 0 1-2.497-2.497 2.5 2.5 0 0 1 2.497-2.497zm4.394-.876a1.085 1.085 0 0 0 0-2.168 1.084 1.084 0 0 0 0 2.168z" fill="#fff"/></svg>