<svg width="30" height="29" viewBox="0 0 30 29" fill="none" xmlns="http://www.w3.org/2000/svg"><path d="M14.988 28.876h-.063C6.984 28.876.523 22.413.523 14.47v-.064C.523 6.463 6.983 0 14.925 0h.063C22.93 0 29.39 6.463 29.39 14.406v.064c0 7.943-6.46 14.406-14.402 14.406zM14.925.977C7.522.977 1.5 7.001 1.5 14.407v.063c0 7.405 6.022 13.428 13.425 13.428h.063c7.403 0 13.425-6.023 13.425-13.428v-.064c0-7.405-6.022-13.429-13.425-13.429h-.063z" fill="#fff"/><path d="M17.676 18.517c-3.57 0-6.474-2.906-6.475-6.476a1.644 1.644 0 0 1 1.913-1.618c.194.032.378.098.547.196a.092.092 0 0 1 .045.066l.377 2.378a.09.09 0 0 1-.023.076 1.63 1.63 0 0 1-.77.48l-.142.04.053.138a4.83 4.83 0 0 0 2.718 2.718l.137.055.04-.143a1.63 1.63 0 0 1 .48-.77.09.09 0 0 1 .062-.024c.005 0 .01 0 .016.002l2.377.377c.028.005.052.02.066.045a1.647 1.647 0 0 1 .22.819c0 .904-.736 1.64-1.641 1.64z" fill="#fff"/><path d="M24.006 13.653a8.762 8.762 0 0 0-2.807-5.682 8.756 8.756 0 0 0-5.945-2.323c-4.844 0-8.786 3.943-8.786 8.79 0 1.626.449 3.21 1.298 4.59l-1.894 4.194 6.063-.647a8.706 8.706 0 0 0 3.319.651 8.765 8.765 0 0 0 1.744-.175c4.057-.82 7.018-4.421 7.042-8.567v-.047a8.58 8.58 0 0 0-.035-.782v-.002zm-11.837 7.082l-3.355.358 1.002-2.22-.2-.269-.046-.061a6.956 6.956 0 0 1-1.33-4.105c0-3.868 3.147-7.016 7.014-7.016 3.624 0 6.695 2.828 6.99 6.438.017.193.025.388.025.58 0 .054 0 .108-.002.165a6.997 6.997 0 0 1-6.23 6.806 6.937 6.937 0 0 1-3.74-.613l-.127-.061-.001-.002z" fill="#fff"/></svg>