<svg width="29" height="29" viewBox="0 0 29 29" fill="none" xmlns="http://www.w3.org/2000/svg"><path d="M14.394 28.797C6.457 28.797 0 22.337 0 14.398 0 6.458 6.457 0 14.394 0s14.394 6.459 14.394 14.398c0 7.94-6.457 14.399-14.394 14.399zm0-27.82C6.996.977.977 6.998.977 14.398c0 7.4 6.02 13.421 13.417 13.421 7.398 0 13.417-6.02 13.417-13.42S21.792.976 14.394.976z" fill="#fff"/><path d="M23.15 11.516c-.11-1.057-.345-2.225-1.211-2.839-.672-.476-1.554-.493-2.378-.492-1.741 0-3.483.003-5.225.004l-5.024.004c-.7.001-1.38-.053-2.03.25-.557.26-.994.754-1.257 1.305-.364.765-.44 1.632-.485 2.478a40.165 40.165 0 0 0 .025 4.627c.071 1.124.252 2.367 1.12 3.083.77.634 1.857.666 2.856.667 3.17.003 6.34.006 9.511.007.407.002.83-.006 1.245-.051.815-.088 1.592-.322 2.116-.926.528-.609.664-1.456.744-2.259a28.988 28.988 0 0 0-.007-5.858zm-10.647 5.611v-5.459l4.726 2.73-4.726 2.729z" fill="#fff"/></svg>