<svg width="30" height="29" viewBox="0 0 30 29" fill="none" xmlns="http://www.w3.org/2000/svg">
<path d="M15.2535 28.8759H15.19C7.24888 28.8759 0.788086 22.4132 0.788086 14.4697V14.4062C0.788086 6.46271 7.24888 0 15.19 0H15.2535C23.1947 0 29.6555 6.46271 29.6555 14.4062V14.4697C29.6555 22.4132 23.1947 28.8759 15.2535 28.8759ZM15.19 0.977419C7.78728 0.977419 1.76522 7.00127 1.76522 14.4062V14.4697C1.76522 21.8746 7.78728 27.8985 15.19 27.8985H15.2535C22.6563 27.8985 28.6783 21.8746 28.6783 14.4697V14.4062C28.6783 7.00127 22.6563 0.977419 15.2535 0.977419H15.19Z" fill="white"/>
<path d="M17.1636 11.2005V14.2393H20.9217L20.3266 18.3328H17.1636V27.7639C16.5295 27.8519 15.8807 27.8978 15.2221 27.8978C14.4619 27.8978 13.7153 27.8372 12.9883 27.7199V18.3328H9.52246V14.2393H12.9883V10.5212C12.9883 8.21453 14.8576 6.34375 17.1646 6.34375V6.34571C17.1714 6.34571 17.1773 6.34375 17.1841 6.34375H20.9227V9.88396H18.4798C17.7538 9.88396 17.1646 10.4733 17.1646 11.1996L17.1636 11.2005Z" fill="white"/>
</svg>
