<svg width="29" height="29" viewBox="0 0 29 29" fill="none" xmlns="http://www.w3.org/2000/svg">
<path d="M14.3941 28.7967C6.45689 28.7967 0 22.3379 0 14.3984C0 6.45879 6.45689 0 14.3941 0C22.3314 0 28.7882 6.45879 28.7882 14.3984C28.7882 22.3379 22.3314 28.7967 14.3941 28.7967ZM14.3941 0.977419C6.99627 0.977419 0.977131 6.99833 0.977131 14.3984C0.977131 21.7984 6.99627 27.8193 14.3941 27.8193C21.792 27.8193 27.8111 21.7984 27.8111 14.3984C27.8111 6.99833 21.792 0.977419 14.3941 0.977419Z" fill="white"/>
<path d="M23.1503 11.5157C23.0408 10.4591 22.8053 9.29105 21.9386 8.67723C21.2673 8.20122 20.385 8.18363 19.5613 8.1846C17.82 8.18558 16.0778 8.18754 14.3365 8.18852C12.6617 8.19047 10.9869 8.19145 9.31213 8.19341C8.61251 8.19439 7.93242 8.13966 7.28263 8.44266C6.72469 8.70265 6.28791 9.19721 6.02506 9.7475C5.66059 10.5128 5.58438 11.3798 5.54041 12.2262C5.45931 13.7676 5.4681 15.3129 5.56484 16.8534C5.63617 17.9774 5.81693 19.2197 6.6856 19.9361C7.45558 20.5705 8.54215 20.6017 9.54078 20.6027C12.7106 20.6057 15.8814 20.6086 19.0522 20.6105C19.4587 20.6115 19.8827 20.6037 20.297 20.5587C21.112 20.4708 21.8888 20.2372 22.4125 19.6331C22.9412 19.0242 23.077 18.1768 23.1571 17.3743C23.3525 15.4273 23.3506 13.4617 23.1503 11.5157ZM12.5034 17.127V11.6681L17.2289 14.3971L12.5034 17.127Z" fill="white"/>
</svg>
